HIERARCHY
ROOT Hips
{
	OFFSET 0.00000 0.00000 0.00000
	CHANNELS 6 Xposition Yposition Zposition Zrotation Yrotation Xrotation 
	JOINT LHipJoint
	{
		OFFSET 0 0 0
		CHANNELS 3 Zrotation Yrotation Xrotation
		JOINT LeftUpLeg
		{
			OFFSET 1.86795 -1.59681 0.65681
			CHANNELS 3 Zrotation Yrotation Xrotation
			JOINT LeftLeg
			{
				OFFSET 2.30491 -6.33268 0.00000
				CHANNELS 3 Zrotation Yrotation Xrotation
				JOINT LeftFoot
				{
					OFFSET 2.46780 -6.78022 0.00000
					CHANNELS 3 Zrotation Yrotation Xrotation
					JOINT LeftToeBase
					{
						OFFSET 0.07897 -0.21698 1.59652
						CHANNELS 3 Zrotation Yrotation Xrotation
						End Site
						{
							OFFSET 0.00000 -0.00000 0.82310
						}
					}
				}
			}
		}
	}
	JOINT RHipJoint
	{
		OFFSET 0 0 0
		CHANNELS 3 Zrotation Yrotation Xrotation
		JOINT RightUpLeg
		{
			OFFSET -1.93650 -1.59681 0.65681
			CHANNELS 3 Zrotation Yrotation Xrotation
			JOINT RightLeg
			{
				OFFSET -2.29410 -6.30299 0.00000
				CHANNELS 3 Zrotation Yrotation Xrotation
				JOINT RightFoot
				{
					OFFSET -2.48738 -6.83403 0.00000
					CHANNELS 3 Zrotation Yrotation Xrotation
					JOINT RightToeBase
					{
						OFFSET -0.08699 -0.23899 1.89395
						CHANNELS 3 Zrotation Yrotation Xrotation
						End Site
						{
							OFFSET -0.00000 -0.00000 0.96904
						}
					}
				}
			}
		}
	}
	JOINT LowerBack
	{
		OFFSET 0 0 0
		CHANNELS 3 Zrotation Yrotation Xrotation
		JOINT Spine
		{
			OFFSET 0.03629 1.99740 -0.07548
			CHANNELS 3 Zrotation Yrotation Xrotation
			JOINT Spine1
			{
				OFFSET 0.03970 1.94298 0.17218
				CHANNELS 3 Zrotation Yrotation Xrotation
				JOINT Neck
				{
					OFFSET 0 0 0
					CHANNELS 3 Zrotation Yrotation Xrotation
					JOINT Neck1
					{
						OFFSET -0.05054 1.79469 0.04241
						CHANNELS 3 Zrotation Yrotation Xrotation
						JOINT Head
						{
							OFFSET 0.05195 1.78475 -0.22133
							CHANNELS 3 Zrotation Yrotation Xrotation
							End Site
							{
								OFFSET 0.02420 1.80711 -0.07950
							}
						}
					}
				}
				JOINT LeftShoulder
				{
					OFFSET 0 0 0
					CHANNELS 3 Zrotation Yrotation Xrotation
					JOINT LeftArm
					{
						OFFSET 2.92134 1.19850 0.36056
						CHANNELS 3 Zrotation Yrotation Xrotation
						JOINT LeftForeArm
						{
							OFFSET 4.84137 -0.00000 0.00000
							CHANNELS 3 Zrotation Yrotation Xrotation
							JOINT LeftHand
							{
								OFFSET 3.24520 -0.00000 -0.00000
								CHANNELS 3 Zrotation Yrotation Xrotation
								JOINT LeftFingerBase
								{
									OFFSET 0 0 0
									CHANNELS 3 Zrotation Yrotation Xrotation
									JOINT LeftHandIndex1
									{
										OFFSET 0.52122 -0.00000 0.00000
										CHANNELS 3 Zrotation Yrotation Xrotation
										End Site
										{
											OFFSET 0.42022 -0.00000 0.00000
										}
									}
								}
								JOINT LThumb
								{
									OFFSET 0 0 0
									CHANNELS 3 Zrotation Yrotation Xrotation
									End Site
									{
										OFFSET 0.42664 -0.00000 0.42664
									}
								}
							}
						}
					}
				}
				JOINT RightShoulder
				{
					OFFSET 0 0 0
					CHANNELS 3 Zrotation Yrotation Xrotation
					JOINT RightArm
					{
						OFFSET -2.84327 1.20795 0.50191
						CHANNELS 3 Zrotation Yrotation Xrotation
						JOINT RightForeArm
						{
							OFFSET -4.72284 -0.00000 0.00000
							CHANNELS 3 Zrotation Yrotation Xrotation
							JOINT RightHand
							{
								OFFSET -3.23459 -0.00000 0.00000
								CHANNELS 3 Zrotation Yrotation Xrotation
								JOINT RightFingerBase
								{
									OFFSET 0 0 0
									CHANNELS 3 Zrotation Yrotation Xrotation
									JOINT RightHandIndex1
									{
										OFFSET -0.30742 -0.00000 0.00000
										CHANNELS 3 Zrotation Yrotation Xrotation
										End Site
										{
											OFFSET -0.24785 -0.00000 0.00000
										}
									}
								}
								JOINT RThumb
								{
									OFFSET 0 0 0
									CHANNELS 3 Zrotation Yrotation Xrotation
									End Site
									{
										OFFSET -0.25163 -0.00000 0.25163
									}
								}
							}
						}
					}
				}
			}
		}
	}
}
MOTION
Frames: 7
Frame Time: .0083333
21.217 15.9994 -31.628 0 0 0 0 0 0 -21 0 0 0 0 0 0 0 0 0 0 0 0 0 0 21 0 0 0 0 0 0 0 0 0 0 0 0 0 0 0 0 0 0 0 0 0 0 -16 0 0 21 0 0 11 0 0 0 -8 0 0 0 0 0 0 0 0 0 0 0 0 0 0 0 0 0 0 0 0 8 0 0 0 0 0 0 0 0 0 0 0 0 0 0 0 0 0
21.2170 15.9994 -31.6280 0.0288 -16.1539 8.2480 0.0000 0.0000 0.0000 -22.6747 -24.7348 -11.5941 1.7261 8.2706 23.5389 -0.4270 17.2132 -19.9916 0.0128 -0.7302 -2.0067 0.0000 0.0000 0.0000 21.4774 27.2959 -11.1345 -1.9664 -8.7958 25.1585 1.1382 -29.4392 -35.4137 -2.5430 -9.9157 28.7040 -0.2568 0.1448 0.1100 0.1474 0.1926 -0.5942 0.2933 0.0981 -0.6708 -4.0174 1.5388 -12.9982 7.2579 1.5539 17.0298 3.1950 1.1469 7.2615 0.0000 0.0000 0.0000 -84.2105 4.3324 36.7868 18.6645 -28.9996 -4.8671 -0.0000 -0.0000 28.0487 -11.1633 43.0514 -7.6724 -7.1250 0.0000 -0.0000 -59.5734 63.2007 -31.6965 0.0000 0.0000 0.0000 81.1768 -1.7151 47.8774 -16.2003 25.7915 -3.7327 0.0000 -0.0000 -12.6483 -17.8980 20.2522 -6.3787 7.1250 -0.0000 -0.0000 6.7624 -8.9062 5.6746
21.2206 15.9980 -31.6264 0.0882 -16.3086 8.1949 0.0000 0.0000 0.0000 -22.7928 -24.7643 -11.4822 1.7113 8.2368 23.4358 -0.5279 17.7289 -19.6997 0.0316 -1.1472 -3.1539 0.0000 0.0000 0.0000 21.4087 27.4012 -11.1364 -1.9822 -8.8290 25.2618 1.2443 -29.6608 -35.1832 -2.4727 -9.7881 28.2933 -0.3098 0.1710 0.1254 0.1332 0.2271 -0.5947 0.3082 0.1156 -0.6803 -4.0269 1.4798 -13.0225 7.2407 1.4772 17.0610 3.1849 1.1084 7.2809 0.0000 0.0000 0.0000 -84.2181 4.3441 36.8624 18.6791 -29.0180 -4.8742 -0.0000 -0.0000 28.0795 -11.2228 43.2126 -7.7367 -7.1250 0.0000 -0.0000 -59.8795 63.2753 -32.0187 0.0000 0.0000 0.0000 81.1833 -1.7739 48.0187 -16.4181 26.0842 -3.8279 0.0000 -0.0000 -12.6019 -17.7175 20.3075 -6.3270 7.1250 -0.0000 -0.0000 6.8812 -8.8729 5.7805
21.2234 15.9973 -31.6264 0.0950 -16.4546 8.1738 0.0000 0.0000 0.0000 -22.8146 -24.7169 -11.4638 1.7058 8.2244 23.3979 -0.5415 17.8269 -19.7154 0.0377 -1.2529 -3.4449 0.0000 0.0000 0.0000 21.3811 27.4445 -11.1752 -1.9927 -8.8508 25.3297 1.2524 -29.6211 -35.0677 -2.5185 -9.8715 28.5616 -0.3389 0.1978 0.1313 0.1519 0.2628 -0.5867 0.3434 0.1336 -0.6759 -3.9321 1.4340 -12.9313 7.0361 1.4372 16.9147 3.0928 1.0747 7.2228 -0.0000 -0.0000 0.0000 -84.2581 4.3336 36.8897 18.7178 -29.0665 -4.8930 -0.0000 -0.0000 28.1327 -11.4582 43.1995 -7.8994 -7.1250 0.0000 -0.0000 -60.0542 63.2016 -32.0496 -0.0000 -0.0000 0.0000 81.1565 -1.8220 48.1334 -16.6379 26.3779 -3.9251 0.0000 -0.0000 -12.4825 -17.3430 20.3438 -6.1962 7.1250 -0.0000 -0.0000 7.1235 -8.8839 5.9857
21.2259 15.9961 -31.6272 0.1285 -16.5467 8.1430 0.0000 0.0000 0.0000 -22.8505 -24.5526 -11.5076 1.7058 8.2244 23.3978 -0.5030 17.6227 -19.8107 0.0305 -1.1272 -3.0989 0.0000 0.0000 0.0000 21.3354 27.5019 -11.1861 -1.9990 -8.8640 25.3707 1.2039 -29.5041 -35.1472 -2.5712 -9.9663 28.8677 -0.3707 0.1845 0.2124 0.1492 0.2446 -0.6499 0.3582 0.1251 -0.7860 -3.8676 1.4580 -12.7841 6.9356 1.4762 16.8108 3.0478 1.0857 7.1624 0.0000 -0.0000 0.0000 -84.2533 4.4647 36.9124 18.7928 -29.1605 -4.9295 -0.0000 -0.0000 27.9625 -11.4107 43.2379 -7.8718 -7.1250 0.0000 -0.0000 -60.0759 63.2365 -32.1118 0.0000 -0.0000 0.0000 81.1798 -1.8587 48.3065 -16.7405 26.5144 -3.9708 0.0000 -0.0000 -12.4883 -17.4467 20.2585 -6.2105 7.1250 -0.0000 -0.0000 7.0524 -8.9581 5.9144
21.2296 15.9952 -31.6266 0.2039 -16.5749 8.1291 0.0000 0.0000 0.0000 -22.9392 -24.4252 -11.5774 1.7129 8.2406 23.4474 -0.4587 17.3713 -19.8925 0.0192 -0.8956 -2.4616 0.0000 0.0000 0.0000 21.2308 27.5485 -11.2004 -1.9998 -8.8657 25.3760 1.1882 -29.4682 -35.1764 -2.5440 -9.9175 28.7099 -0.3795 0.1515 0.2608 0.0996 0.1998 -0.7386 0.3124 0.1029 -0.9034 -3.8284 1.4855 -12.7648 6.9217 1.5026 16.9206 3.0413 1.0997 7.1935 -0.0000 -0.0000 0.0000 -84.1827 4.6197 36.9932 18.8721 -29.2595 -4.9682 -0.0000 -0.0000 27.7592 -11.5033 43.4563 -7.9683 -7.1250 0.0000 -0.0000 -60.5027 63.3327 -32.5546 -0.0000 -0.0000 0.0000 81.1651 -1.9835 48.8716 -16.9564 26.8002 -4.0676 0.0000 -0.0000 -12.8519 -17.9413 19.9035 -6.2902 7.1250 -0.0000 -0.0000 6.7149 -9.2593 5.5865
21.2324 15.9964 -31.6245 0.1952 -16.5763 8.1775 0.0000 0.0000 0.0000 -22.9220 -24.2987 -11.7061 1.7182 8.2526 23.4839 -0.4508 17.2621 -19.7912 0.0262 -1.0447 -2.8718 0.0000 0.0000 0.0000 21.2067 27.5156 -11.2726 -2.0015 -8.8691 25.3868 1.3241 -29.7155 -34.8132 -2.4156 -9.6827 27.9553 -0.3584 0.1231 0.1915 0.1192 0.1625 -0.7720 0.3212 0.0842 -0.8985 -3.8160 1.5014 -12.7521 6.8545 1.5326 16.9537 3.0205 1.1086 7.2010 0.0000 -0.0000 0.0000 -84.2182 4.6255 36.9435 18.8880 -29.2792 -4.9759 -0.0000 -0.0000 27.8074 -11.7769 43.4241 -8.1558 -7.1250 0.0000 -0.0000 -60.6771 63.2375 -32.5572 0.0000 -0.0000 0.0000 81.0683 -2.0902 49.3189 -17.2484 27.1840 -4.2002 0.0000 -0.0000 -13.1180 -18.3168 19.8473 -6.4128 7.1250 -0.0000 -0.0000 6.4697 -9.2685 5.3785
